<svg width="56" height="20" viewBox="0 0 56 20" fill="none" xmlns="http://www.w3.org/2000/svg">
<path fill-rule="evenodd" clip-rule="evenodd" d="M44.2714 1.19908C44.2116 1.88338 43.8584 2.71762 43.7198 3.08567C43.2144 4.44064 42.758 5.53389 42.4591 5.41938C42.1602 5.30488 42.4346 4.12985 42.6384 2.67128C42.7145 2.12329 43.0704 -0.180427 43.9236 0.25578C44.2334 0.413905 44.3095 0.776503 44.2714 1.19908Z" fill="#77C354"/>
<path fill-rule="evenodd" clip-rule="evenodd" d="M49.2982 2.37973C49.2276 2.52967 49.1406 2.67144 49.0591 2.7914C48.6624 3.37482 48.2168 3.92281 47.7467 4.44353C46.467 5.8612 45.3719 6.97899 45.0133 6.68455C44.6546 6.39011 45.5404 5.07603 46.4507 3.37482C46.8311 2.66054 47.2903 1.91898 47.8663 1.36009C48.2032 1.03294 48.8798 0.583098 49.2819 1.05747C49.608 1.43915 49.502 1.94897 49.2955 2.377" fill="#F99F00"/>
<path fill-rule="evenodd" clip-rule="evenodd" d="M55.2621 10.2774C54.8736 10.4655 54.4225 10.5827 54.1508 10.6564C53.7378 10.7654 53.3194 10.8581 52.9009 10.9372C51.1103 11.2752 49.6267 11.4961 49.5017 11.0844C49.3903 10.7163 50.1185 10.4573 50.3658 10.3428C51.3005 9.91207 52.2542 9.47041 53.2243 9.11872C53.8601 8.88971 55.5855 8.25176 55.9496 9.19778C56.1425 9.6967 55.7512 10.0429 55.2621 10.2801" fill="#BB4A93"/>
<path fill-rule="evenodd" clip-rule="evenodd" d="M53.5609 5.15787C53.2973 5.44141 52.9604 5.6786 52.6615 5.90488C52.1968 6.26202 51.7132 6.59463 51.2214 6.91088C49.3982 8.07774 47.8657 8.98287 47.5804 8.60936C47.2842 8.22223 48.4716 7.24894 48.67 7.0472C49.3737 6.32746 50.0747 5.59953 50.8383 4.93977C51.4143 4.44359 53.0337 2.9005 53.8815 3.69113C54.1749 3.96648 54.0092 4.46267 53.8489 4.76256C53.7701 4.90706 53.6723 5.03792 53.5581 5.1606" fill="#008AC2"/>
<path fill-rule="evenodd" clip-rule="evenodd" d="M1.75529 19.6208H2.15743C3.14376 19.6208 3.86925 19.141 3.86925 17.7588V15.4169L6.02396 18.5194C6.58913 19.3809 7.41515 19.6808 8.11889 19.6808C9.26826 19.6808 10.3551 18.7211 10.2546 18.5194L7.31461 14.4163L9.99374 10.6322C10.0943 10.4114 9.06718 9.45174 7.8988 9.45174C7.2331 9.45174 6.40708 9.75164 5.86365 10.6131L3.86925 13.5957V8.35032C3.86925 6.00843 2.60033 5.42773 1.49172 5.42773C0.706463 5.42773 0 5.72763 0 5.86939V17.7615C0 19.1819 0.725484 19.6235 1.75257 19.6235L1.75529 19.6208Z" fill="#2C2E31"/>
<path fill-rule="evenodd" clip-rule="evenodd" d="M16.4552 9.38965C13.3739 9.38965 11.1377 11.6307 11.1377 14.6732C11.1377 17.7158 13.2924 19.7986 16.697 19.7986C19.5174 19.7986 21.0689 18.7981 21.0689 17.4758C21.0689 16.0145 19.2973 15.8346 19.2973 15.8755C18.9142 16.5571 18.0882 17.1378 16.8791 17.1378C15.6699 17.1378 14.8032 16.6171 14.5613 15.5756H20.8679C21.4521 15.5756 21.6341 15.1558 21.6531 14.5751V14.3351C21.6531 11.4725 19.5174 9.38965 16.4552 9.38965ZM14.5015 13.5936C14.6211 12.6121 15.4091 11.8924 16.4144 11.8924C17.4823 11.8924 18.148 12.574 18.167 13.5936H14.5015Z" fill="#2C2E31"/>
<path fill-rule="evenodd" clip-rule="evenodd" d="M25.2348 19.6208H25.6369C26.6233 19.6208 27.3487 19.141 27.3487 17.7588V15.4169L29.5035 18.5194C30.0686 19.3809 30.8946 19.6808 31.5984 19.6808C32.7477 19.6808 33.8346 18.7211 33.7341 18.5194L30.7941 14.4163L33.4732 10.6322C33.5738 10.4114 32.5467 9.45174 31.3783 9.45174C30.7126 9.45174 29.8866 9.75164 29.3431 10.6131L27.3487 13.5957V8.35032C27.3487 6.00843 26.0798 5.42773 24.9712 5.42773C24.186 5.42773 23.4795 5.72763 23.4795 5.86939V17.7615C23.4795 19.1819 24.205 19.6235 25.2321 19.6235L25.2348 19.6208Z" fill="#2C2E31"/>
<path fill-rule="evenodd" clip-rule="evenodd" d="M39.7739 9.38965C36.4698 9.38965 34.9808 10.3711 34.9808 11.9333C34.9808 13.6345 37.5186 13.4954 37.5403 13.4355C37.8012 12.8357 38.3066 12.1132 39.5538 12.1132C40.4803 12.1132 41.0238 12.574 41.1053 13.4355H40.7222C36.4725 13.4546 34.5977 14.5369 34.5977 16.7997C34.5977 18.52 35.9073 19.7223 37.9208 19.7223C39.3717 19.7223 40.5999 19.1225 41.2656 18.1002C41.5672 19.1607 42.3334 19.7005 43.442 19.7005C44.1865 19.7005 44.9338 19.4606 44.9338 19.2588V13.6127C44.9338 10.7692 43.3632 9.38965 39.7766 9.38965H39.7739ZM41.1243 15.6765C41.1243 16.677 40.4586 17.3777 39.4315 17.3777C38.7278 17.3777 38.2631 17.0369 38.2631 16.4562C38.2631 15.6956 39.0891 15.3739 40.6406 15.3357H41.1243V15.6765Z" fill="#2C2E31"/>
</svg>
