<svg width="18" height="18" viewBox="0 0 18 18" fill="none" xmlns="http://www.w3.org/2000/svg">
<g clip-path="url(#clip0_7266_61722)">
<path d="M16.3615 15.6995L12.2162 11.5542C13.1303 10.4878 13.6605 9.10801 13.6605 7.59344C13.6605 4.2274 10.9322 1.5 7.56708 1.5C4.20192 1.5 1.5 4.22828 1.5 7.59344C1.5 10.9586 4.22799 13.6869 7.56708 13.6869C9.08106 13.6869 10.4629 13.1314 11.5278 12.2177L15.6731 16.363C15.7903 16.4524 15.9104 16.4992 16.0305 16.4992C16.1506 16.4992 16.2704 16.4535 16.3618 16.3619C16.5461 16.1799 16.5461 15.8811 16.3615 15.6995ZM7.59344 12.7494C4.72543 12.7494 2.43746 10.4351 2.43746 7.59344C2.43746 4.75179 4.72543 2.43745 7.59344 2.43745C10.4615 2.43745 12.7494 4.72542 12.7494 7.59344C12.7494 10.4615 10.4351 12.7494 7.59344 12.7494Z" fill="#848F9F"/>
</g>
<defs>
<clipPath id="clip0_7266_61722">
<rect width="18" height="18" fill="white"/>
</clipPath>
</defs>
</svg>
